<mxfile host="app.diagrams.net" modified="2021-10-05T09:28:14.644Z" agent="5.0 (Windows NT 10.0; WOW64) AppleWebKit/537.36 (KHTML, like Gecko) Chrome/94.0.4606.61 Safari/537.36" etag="3z92-v-W6t5d6Rqo71T5" version="15.4.1" type="github">
  <diagram name="Page-1" id="74e2e168-ea6b-b213-b513-2b3c1d86103e">
    <mxGraphModel dx="1673" dy="896" grid="1" gridSize="10" guides="1" tooltips="1" connect="1" arrows="1" fold="1" page="1" pageScale="1" pageWidth="1100" pageHeight="850" background="none" math="0" shadow="0">
      <root>
        <mxCell id="0" />
        <mxCell id="1" parent="0" />
        <mxCell id="sJhnjCqGsnm2pnq1tCPo-7" value="" style="edgeStyle=orthogonalEdgeStyle;rounded=0;orthogonalLoop=1;jettySize=auto;html=1;" edge="1" parent="1" source="sJhnjCqGsnm2pnq1tCPo-3" target="sJhnjCqGsnm2pnq1tCPo-14">
          <mxGeometry relative="1" as="geometry">
            <mxPoint x="90" y="140" as="targetPoint" />
          </mxGeometry>
        </mxCell>
        <mxCell id="sJhnjCqGsnm2pnq1tCPo-3" value="Start" style="strokeWidth=2;html=1;shape=mxgraph.flowchart.start_1;whiteSpace=wrap;" vertex="1" parent="1">
          <mxGeometry x="40" y="40" width="100" height="60" as="geometry" />
        </mxCell>
        <mxCell id="sJhnjCqGsnm2pnq1tCPo-10" value="" style="edgeStyle=orthogonalEdgeStyle;rounded=0;orthogonalLoop=1;jettySize=auto;html=1;" edge="1" parent="1" source="sJhnjCqGsnm2pnq1tCPo-4" target="sJhnjCqGsnm2pnq1tCPo-9">
          <mxGeometry relative="1" as="geometry" />
        </mxCell>
        <mxCell id="sJhnjCqGsnm2pnq1tCPo-4" value="Do" style="rounded=1;whiteSpace=wrap;html=1;absoluteArcSize=1;arcSize=14;strokeWidth=2;" vertex="1" parent="1">
          <mxGeometry x="40" y="240" width="100" height="80" as="geometry" />
        </mxCell>
        <mxCell id="sJhnjCqGsnm2pnq1tCPo-8" value="" style="edgeStyle=orthogonalEdgeStyle;rounded=0;orthogonalLoop=1;jettySize=auto;html=1;" edge="1" parent="1" target="sJhnjCqGsnm2pnq1tCPo-4">
          <mxGeometry relative="1" as="geometry">
            <mxPoint x="90" y="220" as="sourcePoint" />
          </mxGeometry>
        </mxCell>
        <mxCell id="sJhnjCqGsnm2pnq1tCPo-12" value="" style="edgeStyle=orthogonalEdgeStyle;rounded=0;orthogonalLoop=1;jettySize=auto;html=1;" edge="1" parent="1" source="sJhnjCqGsnm2pnq1tCPo-9" target="sJhnjCqGsnm2pnq1tCPo-11">
          <mxGeometry relative="1" as="geometry" />
        </mxCell>
        <mxCell id="sJhnjCqGsnm2pnq1tCPo-9" value="Sales = input (&quot;Enter next sales value&quot;)" style="shape=parallelogram;html=1;strokeWidth=2;perimeter=parallelogramPerimeter;whiteSpace=wrap;rounded=1;arcSize=12;size=0.23;" vertex="1" parent="1">
          <mxGeometry x="5" y="350" width="315" height="40" as="geometry" />
        </mxCell>
        <mxCell id="sJhnjCqGsnm2pnq1tCPo-16" value="" style="edgeStyle=orthogonalEdgeStyle;rounded=0;orthogonalLoop=1;jettySize=auto;html=1;" edge="1" parent="1" source="sJhnjCqGsnm2pnq1tCPo-11" target="sJhnjCqGsnm2pnq1tCPo-13">
          <mxGeometry relative="1" as="geometry" />
        </mxCell>
        <mxCell id="sJhnjCqGsnm2pnq1tCPo-11" value="Add Sales to total" style="rounded=1;whiteSpace=wrap;html=1;absoluteArcSize=1;arcSize=14;strokeWidth=2;" vertex="1" parent="1">
          <mxGeometry x="90" y="410" width="100" height="80" as="geometry" />
        </mxCell>
        <mxCell id="sJhnjCqGsnm2pnq1tCPo-18" style="edgeStyle=orthogonalEdgeStyle;rounded=0;orthogonalLoop=1;jettySize=auto;html=1;exitX=1;exitY=0.5;exitDx=0;exitDy=0;exitPerimeter=0;" edge="1" parent="1" source="sJhnjCqGsnm2pnq1tCPo-13">
          <mxGeometry relative="1" as="geometry">
            <mxPoint x="300" y="360" as="targetPoint" />
          </mxGeometry>
        </mxCell>
        <mxCell id="sJhnjCqGsnm2pnq1tCPo-21" value="" style="edgeStyle=orthogonalEdgeStyle;rounded=0;orthogonalLoop=1;jettySize=auto;html=1;" edge="1" parent="1" source="sJhnjCqGsnm2pnq1tCPo-13" target="sJhnjCqGsnm2pnq1tCPo-20">
          <mxGeometry relative="1" as="geometry" />
        </mxCell>
        <mxCell id="sJhnjCqGsnm2pnq1tCPo-13" value="sales = 0" style="strokeWidth=2;html=1;shape=mxgraph.flowchart.decision;whiteSpace=wrap;" vertex="1" parent="1">
          <mxGeometry x="90" y="510" width="100" height="100" as="geometry" />
        </mxCell>
        <mxCell id="sJhnjCqGsnm2pnq1tCPo-15" value="" style="edgeStyle=orthogonalEdgeStyle;rounded=0;orthogonalLoop=1;jettySize=auto;html=1;" edge="1" parent="1" source="sJhnjCqGsnm2pnq1tCPo-14" target="sJhnjCqGsnm2pnq1tCPo-4">
          <mxGeometry relative="1" as="geometry" />
        </mxCell>
        <mxCell id="sJhnjCqGsnm2pnq1tCPo-14" value="total = 0" style="shape=parallelogram;html=1;strokeWidth=2;perimeter=parallelogramPerimeter;whiteSpace=wrap;rounded=1;arcSize=12;size=0.23;" vertex="1" parent="1">
          <mxGeometry x="40" y="150" width="100" height="60" as="geometry" />
        </mxCell>
        <mxCell id="sJhnjCqGsnm2pnq1tCPo-23" value="" style="edgeStyle=orthogonalEdgeStyle;rounded=0;orthogonalLoop=1;jettySize=auto;html=1;" edge="1" parent="1" source="sJhnjCqGsnm2pnq1tCPo-20" target="sJhnjCqGsnm2pnq1tCPo-22">
          <mxGeometry relative="1" as="geometry" />
        </mxCell>
        <mxCell id="sJhnjCqGsnm2pnq1tCPo-20" value="print(&quot;Total = &quot;, Total)" style="shape=parallelogram;perimeter=parallelogramPerimeter;whiteSpace=wrap;html=1;fixedSize=1;strokeWidth=2;" vertex="1" parent="1">
          <mxGeometry x="60" y="660" width="160" height="60" as="geometry" />
        </mxCell>
        <mxCell id="sJhnjCqGsnm2pnq1tCPo-22" value="End" style="ellipse;whiteSpace=wrap;html=1;strokeWidth=2;" vertex="1" parent="1">
          <mxGeometry x="80" y="760" width="120" height="60" as="geometry" />
        </mxCell>
      </root>
    </mxGraphModel>
  </diagram>
</mxfile>
